<?xml version="1.0" ?><!DOCTYPE svg  PUBLIC '-//W3C//DTD SVG 1.1//EN'  'http://www.w3.org/Graphics/SVG/1.1/DTD/svg11.dtd'><svg enable-background="new 0 0 24 24" fill="#008ca9" height="24px" id="logo" version="1.1" viewBox="0 0 24 24" width="24px" xml:space="preserve" xmlns="http://www.w3.org/2000/svg" xmlns:xlink="http://www.w3.org/1999/xlink"><g><g><path d="M19.7,23.5H4.3c-2.1,0-3.8-1.7-3.8-3.8V4.3c0-2.1,1.7-3.8,3.8-3.8h15.3c2.1,0,3.8,1.7,3.8,3.8v15.3    C23.5,21.8,21.8,23.5,19.7,23.5z M4.3,1.5c-1.6,0-2.8,1.3-2.8,2.8v15.3c0,1.6,1.3,2.8,2.8,2.8h15.3c1.6,0,2.8-1.3,2.8-2.8V4.3    c0-1.6-1.3-2.8-2.8-2.8H4.3z"/></g><g><g><path d="M12,20.2c-1.6,0-6.4-5.2-6.4-9.8c0-3.6,2.9-6.5,6.4-6.5c3.5,0,6.4,2.9,6.4,6.5C18.4,14.9,13.6,20.2,12,20.2z M12,4.8     c-3,0-5.4,2.5-5.4,5.5c0,4.1,4.5,8.8,5.4,8.8c0.9-0.1,5.4-4.7,5.4-8.8C17.4,7.3,15,4.8,12,4.8z M12,14.5c-2.3,0-4.1-1.9-4.1-4.1     c0-0.9,0.3-1.7,0.8-2.4C8.8,7.8,9,7.7,9.2,7.7C9.4,7.8,9.6,8,9.6,8.2c0,0.5,0.4,0.9,0.9,0.9c0.5,0,0.9-0.4,0.9-1     c0-0.4-0.2-0.7-0.5-0.9c-0.2-0.1-0.3-0.3-0.3-0.5s0.2-0.4,0.4-0.4c0.3-0.1,0.6-0.1,0.9-0.1c2.3,0,4.1,1.9,4.1,4.1     C16.1,12.6,14.2,14.5,12,14.5z M9.1,9.4C9,9.7,8.9,10,8.9,10.3c0,1.7,1.4,3.1,3.1,3.1c1.7,0,3.1-1.4,3.1-3.1c0-1.6-1.2-3-2.8-3.1     c0.1,0.3,0.2,0.6,0.2,0.9c0,1.1-0.9,2-1.9,2C9.9,10.1,9.4,9.8,9.1,9.4z"/></g></g></g></svg>
